<svg xmlns="http://www.w3.org/2000/svg" xmlns:xlink="http://www.w3.org/1999/xlink" width="1000" zoomAndPan="magnify" viewBox="0 0 750 749.999995" height="1000" preserveAspectRatio="xMidYMid meet" version="1.0"><defs><clipPath id="8931180f1a"><path d="M 23 416 L 390 416 L 390 596.449219 L 23 596.449219 Z M 23 416 " clip-rule="nonzero"/></clipPath><clipPath id="5d9bf92bb1"><path d="M 360 416 L 727 416 L 727 596.449219 L 360 596.449219 Z M 360 416 " clip-rule="nonzero"/></clipPath></defs><path fill="#030712" d="M 547.496094 440.585938 C 481.753906 506.328125 374.996094 506.167969 374.996094 506.167969 C 374.996094 506.167969 374.832031 399.414062 440.574219 333.667969 C 506.316406 267.925781 613.074219 268.089844 613.074219 268.089844 C 613.074219 268.089844 613.238281 374.84375 547.496094 440.585938 Z M 547.496094 440.585938 " fill-opacity="1" fill-rule="nonzero"/><path fill="#ffffff" d="M 375.003906 520.675781 C 375 520.675781 374.980469 520.675781 374.976562 520.675781 C 366.980469 520.664062 360.5 514.1875 360.488281 506.191406 C 360.480469 501.585938 361.109375 392.617188 430.316406 323.410156 C 499.351562 254.375 608.453125 253.582031 613.066406 253.582031 C 621.070312 253.582031 627.570312 260.0625 627.582031 268.066406 C 627.589844 272.671875 626.957031 381.640625 557.753906 450.847656 C 488.714844 519.882812 379.613281 520.675781 375.003906 520.675781 Z M 597.699219 283.488281 C 567.035156 286.25 497.1875 297.574219 450.835938 343.925781 C 404.335938 390.425781 393.089844 460.125 390.371094 490.769531 C 421.046875 488.003906 490.882812 476.675781 537.234375 430.328125 C 583.734375 383.828125 594.980469 314.128906 597.699219 283.488281 Z M 597.699219 283.488281 " fill-opacity="1" fill-rule="nonzero"/><path fill="#030712" d="M 309.417969 333.667969 C 375.160156 399.410156 374.996094 506.164062 374.996094 506.164062 C 374.996094 506.164062 268.242188 506.328125 202.5 440.585938 C 136.753906 374.839844 136.917969 268.085938 136.917969 268.085938 C 136.917969 268.085938 243.675781 267.925781 309.417969 333.667969 Z M 309.417969 333.667969 " fill-opacity="1" fill-rule="nonzero"/><path fill="#ffffff" d="M 375.015625 520.675781 C 375.011719 520.675781 374.996094 520.675781 374.988281 520.675781 C 370.378906 520.675781 261.277344 519.882812 192.238281 450.847656 C 123.035156 381.640625 122.402344 272.671875 122.410156 268.066406 C 122.421875 260.070312 128.902344 253.59375 136.898438 253.582031 C 141.539062 253.582031 250.640625 254.375 319.675781 323.410156 C 388.882812 392.617188 389.511719 501.585938 389.503906 506.191406 C 389.492188 514.183594 383.011719 520.664062 375.015625 520.675781 Z M 152.320312 283.492188 C 155.085938 314.171875 166.421875 383.988281 212.757812 430.328125 C 259.097656 476.664062 328.90625 488 359.597656 490.765625 C 356.828125 460.082031 345.496094 390.265625 299.15625 343.925781 C 252.816406 297.585938 183.007812 286.257812 152.320312 283.492188 Z M 152.320312 283.492188 " fill-opacity="1" fill-rule="nonzero"/><path fill="#030712" d="M 206.648438 430.5625 C 299.625 430.5625 374.996094 506.164062 374.996094 506.164062 C 374.996094 506.164062 299.625 581.769531 206.648438 581.769531 C 113.671875 581.769531 38.304688 506.164062 38.304688 506.164062 C 38.304688 506.164062 113.675781 430.5625 206.648438 430.5625 Z M 206.648438 430.5625 " fill-opacity="1" fill-rule="nonzero"/><g clip-path="url(#8931180f1a)"><path fill="#ffffff" d="M 206.648438 596.28125 C 108.777344 596.28125 31.28125 519.671875 28.027344 516.410156 C 22.382812 510.75 22.382812 501.585938 28.027344 495.921875 C 31.28125 492.660156 108.777344 416.054688 206.648438 416.054688 C 304.523438 416.054688 382.019531 492.660156 385.269531 495.921875 C 390.914062 501.585938 390.914062 510.75 385.269531 516.410156 C 382.019531 519.671875 304.523438 596.28125 206.648438 596.28125 Z M 60.066406 506.148438 C 83.703125 525.882812 141.097656 567.257812 206.652344 567.257812 C 272.410156 567.257812 329.648438 525.925781 353.238281 506.183594 C 329.601562 486.449219 272.207031 445.074219 206.652344 445.074219 C 140.890625 445.074219 83.652344 486.40625 60.066406 506.148438 Z M 60.066406 506.148438 " fill-opacity="1" fill-rule="nonzero"/></g><path fill="#030712" d="M 543.34375 581.769531 C 450.367188 581.769531 374.996094 506.167969 374.996094 506.167969 C 374.996094 506.167969 450.367188 430.566406 543.34375 430.566406 C 636.320312 430.566406 711.691406 506.167969 711.691406 506.167969 C 711.691406 506.167969 636.316406 581.769531 543.34375 581.769531 Z M 543.34375 581.769531 " fill-opacity="1" fill-rule="nonzero"/><g clip-path="url(#5d9bf92bb1)"><path fill="#ffffff" d="M 543.34375 596.28125 C 445.472656 596.28125 367.972656 519.671875 364.722656 516.410156 C 359.078125 510.75 359.078125 501.585938 364.722656 495.921875 C 367.972656 492.660156 445.472656 416.054688 543.34375 416.054688 C 641.214844 416.054688 718.710938 492.660156 721.964844 495.921875 C 727.609375 501.585938 727.609375 510.75 721.964844 516.410156 C 718.710938 519.671875 641.214844 596.28125 543.34375 596.28125 Z M 396.753906 506.148438 C 420.394531 525.882812 477.789062 567.257812 543.34375 567.257812 C 609.101562 567.257812 666.339844 525.925781 689.929688 506.183594 C 666.292969 486.449219 608.898438 445.074219 543.34375 445.074219 C 477.582031 445.074219 420.34375 486.40625 396.753906 506.148438 Z M 396.753906 506.148438 " fill-opacity="1" fill-rule="nonzero"/></g><path fill="#030712" d="M 450.597656 337.820312 C 450.597656 430.796875 374.996094 506.167969 374.996094 506.167969 C 374.996094 506.167969 299.394531 430.796875 299.394531 337.820312 C 299.394531 244.84375 374.996094 169.476562 374.996094 169.476562 C 374.996094 169.476562 450.597656 244.84375 450.597656 337.820312 Z M 450.597656 337.820312 " fill-opacity="1" fill-rule="nonzero"/><path fill="#ffffff" d="M 374.996094 520.675781 C 371.289062 520.675781 367.585938 519.265625 364.753906 516.445312 C 361.492188 513.191406 284.882812 435.695312 284.882812 337.824219 C 284.882812 239.949219 361.492188 162.453125 364.753906 159.199219 C 370.414062 153.554688 379.578125 153.554688 385.242188 159.199219 C 388.503906 162.453125 465.109375 239.949219 465.109375 337.824219 C 465.109375 435.695312 388.503906 513.191406 385.242188 516.445312 C 382.410156 519.265625 378.703125 520.675781 374.996094 520.675781 Z M 375.011719 191.234375 C 355.28125 214.871094 313.902344 272.265625 313.902344 337.820312 C 313.902344 403.582031 355.234375 460.820312 374.980469 484.410156 C 394.714844 460.761719 436.089844 403.371094 436.089844 337.820312 C 436.089844 272.0625 394.757812 214.820312 375.011719 191.234375 Z M 375.011719 191.234375 " fill-opacity="1" fill-rule="nonzero"/></svg>