<svg xmlns="http://www.w3.org/2000/svg" xmlns:xlink="http://www.w3.org/1999/xlink" width="1000" zoomAndPan="magnify" viewBox="0 0 750 749.999995" height="1000" preserveAspectRatio="xMidYMid meet" version="1.0"><defs><clipPath id="d697902286"><path d="M 175 405 L 575 405 L 575 697.769531 L 175 697.769531 Z M 175 405 " clip-rule="nonzero"/></clipPath><clipPath id="018ad94cc3"><path d="M 236 52.019531 L 514 52.019531 L 514 545 L 236 545 Z M 236 52.019531 " clip-rule="nonzero"/></clipPath></defs><g clip-path="url(#d697902286)"><path fill="#ffffff" d="M 574.933594 405.808594 L 544.121094 405.808594 C 544.121094 494.324219 463.445312 575.003906 374.929688 575.003906 C 286.414062 575.003906 205.871094 494.324219 205.871094 405.808594 L 175.058594 405.808594 C 175.058594 507.164062 259.65625 596.625 359.65625 605.140625 L 359.65625 667.300781 L 313.574219 667.300781 L 313.574219 697.980469 L 436.550781 697.980469 L 436.550781 667.167969 L 390.46875 667.167969 L 390.46875 605.003906 C 490.335938 596.625 574.933594 507.164062 574.933594 405.808594 Z M 574.933594 405.808594 " fill-opacity="1" fill-rule="nonzero"/></g><g clip-path="url(#018ad94cc3)"><path fill="#ffffff" d="M 375.0625 544.191406 C 451.417969 544.191406 513.445312 482.164062 513.445312 405.808594 L 513.445312 190.398438 C 513.445312 114.183594 451.28125 52.019531 375.0625 52.019531 C 298.84375 52.019531 236.546875 114.183594 236.546875 190.398438 L 236.546875 405.675781 C 236.546875 482.027344 298.710938 544.191406 375.0625 544.191406 Z M 267.359375 190.398438 C 267.359375 131.074219 315.601562 82.695312 375.0625 82.695312 C 434.386719 82.695312 482.769531 130.9375 482.769531 190.398438 L 482.769531 405.675781 C 482.769531 465 434.523438 513.378906 375.0625 513.378906 C 315.738281 513.378906 267.359375 465.136719 267.359375 405.675781 Z M 267.359375 190.398438 " fill-opacity="1" fill-rule="nonzero"/></g></svg>